<svg width="502" height="458" viewBox="0 0 502 458" fill="none" xmlns="http://www.w3.org/2000/svg">
<g clip-path="url(#clip0_197_463)">
<path d="M432.626 42.2034L11.9938 164.526L23.1351 202.692L443.767 80.3702L432.626 42.2034Z" fill="#3F3D56"/>
<path d="M62.2482 339.839L0.250318 127.454C-0.209316 125.88 -0.0234074 124.187 0.767119 122.749C1.55765 121.312 2.88804 120.246 4.46565 119.787L414.901 0.430364C416.478 -0.026858 418.173 0.159327 419.613 0.948072C421.053 1.73682 422.121 3.06367 422.582 4.63738L477.508 192.795L475.808 193.29L420.883 5.13171C420.553 4.0081 419.79 3.06089 418.761 2.49758C417.733 1.93428 416.523 1.80081 415.396 2.12644L4.96082 121.483C3.83395 121.811 2.88367 122.572 2.31901 123.599C1.75435 124.626 1.62155 125.835 1.94985 126.96L63.9477 339.345L62.2482 339.839Z" fill="#3F3D56"/>
<path d="M386.665 193.67C385.42 193.668 384.208 193.264 383.212 192.519C382.216 191.773 381.489 190.725 381.139 189.532L370.74 153.91C370.315 152.448 370.489 150.877 371.222 149.543C371.956 148.208 373.19 147.219 374.654 146.791L410.344 136.412C411.809 135.988 413.383 136.161 414.72 136.894C416.057 137.626 417.049 138.858 417.477 140.319L427.876 175.942C428.301 177.404 428.127 178.974 427.393 180.309C426.66 181.644 425.425 182.633 423.962 183.061L388.271 193.44C387.749 193.592 387.209 193.669 386.665 193.67Z" fill="#C7413C"/>
<path d="M61.2897 128.111C61.1829 127.745 61.0557 127.385 60.909 127.033C59.9111 124.616 58.0534 122.652 55.6927 121.519C53.3321 120.385 50.6351 120.163 48.12 120.894C45.6049 121.624 43.4492 123.257 42.067 125.478C40.6847 127.699 40.1736 130.352 40.6318 132.926C40.6961 133.301 40.7818 133.673 40.8884 134.039C41.5348 136.241 42.8784 138.175 44.7181 139.551C46.5577 140.927 48.7945 141.671 51.0934 141.672C52.0971 141.674 53.0959 141.531 54.0586 141.248C56.7607 140.46 59.0394 138.634 60.395 136.171C61.7506 133.709 62.0724 130.81 61.2897 128.111ZM53.5629 139.551C51.3094 140.204 48.8885 139.938 46.8312 138.812C44.7738 137.686 43.2478 135.792 42.5878 133.544C42.4842 133.178 42.4013 132.806 42.3397 132.431C42.0077 130.31 42.4611 128.141 43.6151 126.33C44.7691 124.518 46.5447 123.188 48.6098 122.588C50.6749 121.989 52.8883 122.16 54.8359 123.071C56.7835 123.982 58.332 125.569 59.1919 127.537C59.3522 127.882 59.4854 128.24 59.5904 128.606C60.2435 130.855 59.9757 133.271 58.8455 135.323C57.7154 137.376 55.8154 138.896 53.5629 139.551Z" fill="#C7413C"/>
<path d="M35.2392 135.682C34.6728 133.74 34.7272 131.671 35.3948 129.762C36.0625 127.852 37.3101 126.199 38.964 125.031C37.4145 124.955 35.8694 125.25 34.4575 125.892C33.0455 126.533 31.8075 127.502 30.8466 128.717C29.8857 129.933 29.2298 131.36 28.9334 132.88C28.637 134.4 28.7088 135.968 29.1427 137.455C29.5766 138.941 30.3602 140.303 31.4281 141.426C32.496 142.549 33.8173 143.401 35.282 143.911C36.7466 144.422 38.3122 144.575 39.8483 144.359C41.3844 144.143 42.8466 143.564 44.1131 142.67C42.0894 142.571 40.147 141.845 38.5564 140.592C36.9658 139.34 35.8062 137.623 35.2392 135.682Z" fill="#C7413C"/>
<path d="M310.382 179.464C310.194 178.788 309.873 178.156 309.44 177.603C309.007 177.051 308.468 176.589 307.856 176.244C307.243 175.9 306.569 175.679 305.871 175.595C305.173 175.511 304.465 175.565 303.788 175.754L245.027 192.159L238.698 193.926H278.439L284.767 192.159L306.673 186.046C308.039 185.663 309.197 184.755 309.892 183.521C310.587 182.287 310.763 180.828 310.382 179.464Z" fill="#CCCCCC"/>
<path d="M268.809 167.211C268.426 165.848 267.517 164.692 266.28 163.998C265.043 163.304 263.581 163.128 262.215 163.51L174.042 188.122C172.81 188.47 171.743 189.246 171.034 190.311C170.325 191.375 170.02 192.657 170.174 193.926H193.001L199.338 192.159L265.101 173.801C266.467 173.417 267.625 172.508 268.321 171.272C269.016 170.036 269.192 168.576 268.809 167.211Z" fill="#CCCCCC"/>
<path d="M495.804 192.157H68.3028C66.6602 192.159 65.0853 192.811 63.9238 193.97C62.7623 195.129 62.109 196.701 62.1071 198.341V450.998C62.1089 452.637 62.7622 454.209 63.9237 455.369C65.0853 456.528 66.6601 457.18 68.3028 457.182H495.804C497.447 457.18 499.022 456.528 500.183 455.368C501.345 454.209 501.998 452.637 502 450.998V198.341C501.998 196.701 501.345 195.129 500.183 193.97C499.022 192.811 497.447 192.159 495.804 192.157ZM500.23 450.998C500.229 452.169 499.763 453.292 498.933 454.121C498.103 454.949 496.978 455.414 495.804 455.415H68.3028C67.1292 455.415 66.0038 454.949 65.174 454.121C64.3441 453.292 63.8777 452.169 63.8773 450.998V198.341C63.8778 197.169 64.3442 196.046 65.1741 195.218C66.0039 194.39 67.1292 193.924 68.3028 193.924H495.804C496.978 193.924 498.103 194.39 498.933 195.218C499.763 196.046 500.229 197.169 500.23 198.341V450.998Z" fill="#3F3D56"/>
<path d="M109.899 226.612C107.798 226.612 105.745 225.99 103.998 224.826C102.252 223.661 100.89 222.005 100.086 220.068C99.2826 218.131 99.0722 215.999 99.482 213.943C99.8919 211.887 100.903 209.998 102.389 208.515C103.874 207.033 105.767 206.023 107.827 205.614C109.887 205.205 112.023 205.415 113.964 206.217C115.904 207.019 117.563 208.378 118.73 210.122C119.897 211.865 120.52 213.914 120.52 216.011C120.517 218.822 119.397 221.516 117.406 223.504C115.415 225.491 112.715 226.609 109.899 226.612ZM109.899 207.177C108.149 207.177 106.437 207.695 104.982 208.666C103.526 209.637 102.392 211.016 101.722 212.63C101.052 214.245 100.877 216.021 101.218 217.735C101.56 219.448 102.403 221.022 103.641 222.258C104.878 223.493 106.455 224.335 108.172 224.676C109.889 225.016 111.669 224.841 113.286 224.173C114.904 223.504 116.286 222.372 117.258 220.919C118.231 219.466 118.75 217.758 118.75 216.011C118.747 213.669 117.814 211.424 116.155 209.767C114.495 208.111 112.246 207.18 109.899 207.177Z" fill="#C7413C"/>
<path d="M93.3901 216.011C93.3905 213.989 94.0227 212.017 95.1987 210.371C96.3748 208.724 98.0362 207.484 99.9513 206.825C98.4849 206.32 96.9187 206.172 95.3834 206.393C93.848 206.615 92.388 207.199 91.1248 208.098C89.8616 208.997 88.8318 210.184 88.1213 211.56C87.4108 212.937 87.0401 214.463 87.0401 216.011C87.0401 217.559 87.4108 219.085 88.1213 220.462C88.8318 221.838 89.8616 223.025 91.1248 223.924C92.388 224.823 93.848 225.407 95.3834 225.629C96.9187 225.85 98.4849 225.702 99.9513 225.197C98.0362 224.538 96.3748 223.298 95.1987 221.652C94.0227 220.005 93.3905 218.033 93.3901 216.011Z" fill="#C7413C"/>
<path d="M152.953 341.26C150.841 341.258 148.817 340.419 147.323 338.929C145.83 337.438 144.99 335.417 144.988 333.309V309.457C144.988 307.348 145.827 305.326 147.321 303.835C148.815 302.344 150.841 301.506 152.953 301.506C155.066 301.506 157.092 302.344 158.586 303.835C160.08 305.326 160.919 307.348 160.919 309.457V333.309C160.917 335.417 160.077 337.438 158.583 338.929C157.09 340.419 155.065 341.258 152.953 341.26Z" fill="#C7413C"/>
<path d="M174.196 341.26C172.084 341.258 170.059 340.419 168.566 338.929C167.072 337.438 166.232 335.417 166.23 333.309V309.457C166.23 307.348 167.069 305.326 168.563 303.835C170.057 302.344 172.083 301.506 174.196 301.506C176.308 301.506 178.335 302.344 179.828 303.835C181.322 305.326 182.162 307.348 182.162 309.457V333.309C182.159 335.417 181.319 337.438 179.826 338.929C178.332 340.419 176.308 341.258 174.196 341.26Z" fill="#C7413C"/>
<path d="M195.438 341.26C193.326 341.258 191.301 340.419 189.808 338.929C188.315 337.438 187.475 335.417 187.472 333.309V309.457C187.472 307.348 188.311 305.326 189.805 303.835C191.299 302.344 193.325 301.506 195.438 301.506C197.551 301.506 199.577 302.344 201.071 303.835C202.565 305.326 203.404 307.348 203.404 309.457V333.309C203.401 335.417 202.561 337.438 201.068 338.929C199.575 340.419 197.55 341.258 195.438 341.26Z" fill="#C7413C"/>
<path d="M228.187 341.26C226.075 341.258 224.05 340.419 222.556 338.929C221.063 337.438 220.223 335.417 220.221 333.309V309.457C220.221 307.348 221.06 305.326 222.554 303.835C224.048 302.344 226.074 301.506 228.187 301.506C230.299 301.506 232.325 302.344 233.819 303.835C235.313 305.326 236.152 307.348 236.152 309.457V333.309C236.15 335.417 235.31 337.438 233.817 338.929C232.323 340.419 230.298 341.258 228.187 341.26Z" fill="#C7413C"/>
<path d="M249.429 341.26C247.317 341.258 245.292 340.419 243.799 338.929C242.305 337.438 241.465 335.417 241.463 333.309V309.457C241.463 307.348 242.302 305.326 243.796 303.835C245.29 302.344 247.316 301.506 249.429 301.506C251.541 301.506 253.568 302.344 255.062 303.835C256.555 305.326 257.395 307.348 257.395 309.457V333.309C257.392 335.417 256.552 337.438 255.059 338.929C253.566 340.419 251.541 341.258 249.429 341.26Z" fill="#C7413C"/>
<path d="M270.671 341.26C268.559 341.258 266.534 340.419 265.041 338.929C263.548 337.438 262.708 335.417 262.705 333.309V309.457C262.705 307.348 263.545 305.326 265.038 303.835C266.532 302.344 268.558 301.506 270.671 301.506C272.784 301.506 274.81 302.344 276.304 303.835C277.798 305.326 278.637 307.348 278.637 309.457V333.309C278.635 335.417 277.795 337.438 276.301 338.929C274.808 340.419 272.783 341.258 270.671 341.26Z" fill="#C7413C"/>
<path d="M303.42 341.26C301.308 341.258 299.283 340.419 297.79 338.929C296.296 337.438 295.456 335.417 295.454 333.309V309.457C295.454 307.348 296.293 305.326 297.787 303.835C299.281 302.344 301.307 301.506 303.42 301.506C305.532 301.506 307.558 302.344 309.052 303.835C310.546 305.326 311.386 307.348 311.386 309.457V333.309C311.383 335.417 310.543 337.438 309.05 338.929C307.556 340.419 305.532 341.258 303.42 341.26Z" fill="#C7413C"/>
<path d="M324.662 341.26C322.55 341.258 320.525 340.419 319.032 338.929C317.539 337.438 316.699 335.417 316.696 333.309V309.457C316.696 307.348 317.535 305.326 319.029 303.835C320.523 302.344 322.549 301.506 324.662 301.506C326.775 301.506 328.801 302.344 330.295 303.835C331.789 305.326 332.628 307.348 332.628 309.457V333.309C332.625 335.417 331.785 337.438 330.292 338.929C328.799 340.419 326.774 341.258 324.662 341.26Z" fill="#C7413C"/>
<path d="M345.904 341.26C343.792 341.258 341.768 340.419 340.274 338.929C338.781 337.438 337.941 335.417 337.938 333.309V309.457C337.938 307.348 338.778 305.326 340.272 303.835C341.765 302.344 343.792 301.506 345.904 301.506C348.017 301.506 350.043 302.344 351.537 303.835C353.031 305.326 353.87 307.348 353.87 309.457V333.309C353.868 335.417 353.028 337.438 351.534 338.929C350.041 340.419 348.016 341.258 345.904 341.26Z" fill="#C7413C"/>
<path d="M378.653 341.26C376.541 341.258 374.516 340.419 373.023 338.929C371.529 337.438 370.689 335.417 370.687 333.309V309.457C370.687 307.348 371.526 305.326 373.02 303.835C374.514 302.344 376.54 301.506 378.653 301.506C380.765 301.506 382.792 302.344 384.285 303.835C385.779 305.326 386.619 307.348 386.619 309.457V333.309C386.616 335.417 385.776 337.438 384.283 338.929C382.789 340.419 380.765 341.258 378.653 341.26Z" fill="#C7413C"/>
<path d="M399.895 341.26C397.783 341.258 395.758 340.419 394.265 338.929C392.772 337.438 391.932 335.417 391.929 333.309V309.457C391.929 307.348 392.768 305.326 394.262 303.835C395.756 302.344 397.782 301.506 399.895 301.506C402.008 301.506 404.034 302.344 405.528 303.835C407.022 305.326 407.861 307.348 407.861 309.457V333.309C407.859 335.417 407.018 337.438 405.525 338.929C404.032 340.419 402.007 341.258 399.895 341.26Z" fill="#C7413C"/>
<path d="M421.137 341.26C419.025 341.258 417.001 340.419 415.507 338.929C414.014 337.438 413.174 335.417 413.172 333.309V309.457C413.172 307.348 414.011 305.326 415.505 303.835C416.999 302.344 419.025 301.506 421.137 301.506C423.25 301.506 425.276 302.344 426.77 303.835C428.264 305.326 429.103 307.348 429.103 309.457V333.309C429.101 335.417 428.261 337.438 426.767 338.929C425.274 340.419 423.249 341.258 421.137 341.26Z" fill="#C7413C"/>
<path d="M206.96 429.749H92.3931C90.9736 429.749 89.6122 429.187 88.6084 428.185C87.6046 427.183 87.0406 425.824 87.0406 424.407C87.0406 422.99 87.6046 421.631 88.6084 420.629C89.6122 419.628 90.9736 419.065 92.3931 419.065H206.96C208.38 419.065 209.741 419.628 210.745 420.629C211.749 421.631 212.313 422.99 212.313 424.407C212.313 425.824 211.749 427.183 210.745 428.185C209.741 429.187 208.38 429.749 206.96 429.749Z" fill="#E6E6E6"/>
<path d="M170.229 406.78H129.125C127.705 406.78 126.344 406.218 125.34 405.216C124.336 404.214 123.772 402.855 123.772 401.438C123.772 400.021 124.336 398.662 125.34 397.66C126.344 396.659 127.705 396.096 129.125 396.096H170.229C171.648 396.096 173.01 396.659 174.014 397.66C175.017 398.662 175.581 400.021 175.581 401.438C175.581 402.855 175.017 404.214 174.014 405.216C173.01 406.218 171.648 406.78 170.229 406.78Z" fill="#E6E6E6"/>
<path d="M499.911 244.968H63.5588V246.735H499.911V244.968Z" fill="#3F3D56"/>
</g>
<defs>
<clipPath id="clip0_197_463">
<rect width="502" height="457" fill="white" transform="translate(0 0.181885)"/>
</clipPath>
</defs>
</svg>
