<svg width="17" height="17" viewBox="0 0 17 17" fill="none" xmlns="http://www.w3.org/2000/svg">
<g clip-path="url(#clip0_193_335)">
<path d="M9.74299 5.99091H7.25599C6.22599 5.99091 4.67699 5.11991 4.10499 4.54391C3.29999 3.73291 3.29999 2.41191 4.10599 1.60091C4.88899 0.812906 6.25499 0.812906 7.03899 1.60091C7.47199 2.03691 8.62199 3.80791 8.46399 4.98991H8.53499C8.37699 3.80791 9.52699 2.03691 9.96099 1.60091C10.743 0.812906 12.109 0.810906 12.894 1.60091C13.701 2.41191 13.701 3.73191 12.894 4.54291C12.322 5.11891 10.773 5.99091 9.74299 5.99091ZM9.74299 4.99091C10.434 4.99091 11.754 4.27291 12.184 3.83891C12.604 3.41691 12.604 2.72891 12.184 2.30691C11.778 1.89791 11.073 1.89991 10.669 2.30691C9.99499 2.98491 9.32499 4.71691 9.55799 4.95791C9.55899 4.95791 9.60099 4.99091 9.74299 4.99091ZM5.57299 1.99091C5.28699 1.99091 5.01799 2.10291 4.81499 2.30691C4.39599 2.72891 4.39599 3.41691 4.81499 3.83891C5.24599 4.27291 6.56499 4.99091 7.25599 4.99091C7.39899 4.99091 7.44099 4.95891 7.44099 4.95891C7.67399 4.71591 7.00399 2.98391 6.32999 2.30691C6.12699 2.10291 5.85799 1.99091 5.57299 1.99091Z" fill="#F44336"/>
<path d="M1.5 7.99084V14.9908C1.5 15.5428 1.949 15.9908 2.5 15.9908H14.5C15.052 15.9908 15.5 15.5428 15.5 14.9908V7.99084H1.5Z" fill="#FFC107"/>
<path d="M15.5 4.99084H1.5C0.949 4.99084 0.5 5.43985 0.5 5.99085V8.49086C0.5 8.76686 0.724 8.99086 1 8.99086H16C16.276 8.99086 16.5 8.76686 16.5 8.49086V5.99085C16.5 5.43885 16.052 4.99084 15.5 4.99084Z" fill="#FFD54F"/>
<path d="M9.5 4.99084H7.5V15.9908H9.5V4.99084Z" fill="#F44336"/>
</g>
<defs>
<clipPath id="clip0_193_335">
<rect width="16" height="16" fill="white" transform="translate(0.5 0.5)"/>
</clipPath>
</defs>
</svg>
