<svg width="250" height="251" viewBox="0 0 250 251" fill="none" xmlns="http://www.w3.org/2000/svg">
<circle cx="125" cy="125.182" r="124.5" fill="#C7413C" fill-opacity="0.4" stroke="#C7413C"/>
<circle cx="125" cy="125.182" r="99.5" fill="white" stroke="white"/>
<g clip-path="url(#clip0_350_99)">
<path d="M169.299 51.6774C169.096 51.7421 168.908 51.8463 168.745 51.984C168.582 52.1217 168.448 52.2901 168.351 52.4796C168.254 52.6692 168.195 52.8761 168.177 53.0885C168.16 53.3009 168.185 53.5146 168.251 53.7173L198.865 149.703C198.995 150.113 199.283 150.454 199.666 150.652C200.048 150.849 200.493 150.886 200.902 150.756C201.312 150.625 201.653 150.337 201.851 149.955C202.048 149.573 202.085 149.128 201.955 148.718L171.341 52.7317C171.21 52.3211 170.921 51.9794 170.538 51.7817C170.155 51.5839 169.709 51.5464 169.299 51.6774ZM164.973 57.1642C164.673 57.1212 164.366 57.163 164.088 57.2849C163.81 57.4068 163.571 57.6038 163.399 57.8539L162.089 59.7897C155.194 70.0225 143.663 87.1441 112.182 97.1845L69.2395 110.881C64.7467 112.314 62.2781 117.195 63.7338 121.759L74.3144 154.933C75.7364 159.391 80.5475 161.855 85.0403 160.422L95.5492 157.07C96.9327 160.467 100.85 168.322 108.837 172.485C114.868 175.63 121.885 175.961 129.691 173.472C130.102 173.341 130.443 173.052 130.641 172.669C130.839 172.286 130.876 171.84 130.745 171.43C130.614 171.019 130.326 170.677 129.943 170.479C129.56 170.282 129.114 170.244 128.703 170.375C121.761 172.589 115.594 172.332 110.36 169.614C103.544 166.071 99.9865 159.196 98.6641 156.077L107.938 153.119C108.874 155.147 110.91 158.588 114.649 160.537C117.878 162.219 121.61 162.404 125.741 161.086C126.151 160.955 126.493 160.667 126.691 160.284C126.889 159.901 126.926 159.455 126.795 159.044C126.664 158.634 126.376 158.292 125.993 158.094C125.61 157.896 125.164 157.859 124.753 157.99C121.487 159.032 118.6 158.922 116.177 157.669C113.492 156.277 111.882 153.765 111.062 152.123L127.77 146.794C159.402 136.705 178.862 144.017 190.49 148.387L192.512 149.144C192.797 149.25 193.106 149.273 193.404 149.211C193.701 149.148 193.975 149.003 194.194 148.792C194.414 148.582 194.571 148.314 194.646 148.019C194.721 147.724 194.713 147.414 194.62 147.124L166.284 58.2779C166.192 57.9877 166.021 57.7292 165.789 57.5321C165.557 57.3351 165.274 57.2075 164.973 57.1642ZM77.4107 153.945L66.8301 120.771C65.9186 117.913 67.4403 114.866 70.227 113.977L80.6586 110.65L94.4843 153.999L84.0527 157.326C81.2196 158.229 78.3034 156.744 77.4107 153.945ZM190.516 144.919C178.377 140.379 158.492 133.584 126.785 143.697L108.836 149.421C108.671 149.414 108.506 149.431 108.347 149.472L108.341 149.474C108.18 149.532 108.029 149.616 107.894 149.722L97.5806 153.011L83.7549 109.663L113.17 100.281C144.867 90.1713 157.019 73.1143 164.215 62.4548L190.516 144.919ZM70.133 157.866C70.5436 157.735 70.8854 157.447 71.0831 157.064C71.2809 156.681 71.3184 156.235 71.1874 155.824L60.6068 122.65C60.4759 122.24 60.1872 121.898 59.8042 121.7C59.4213 121.502 58.9755 121.465 58.5649 121.596C58.1543 121.727 57.8125 122.016 57.6148 122.398C57.4171 122.781 57.3795 123.227 57.5105 123.638L68.0911 156.812C68.2221 157.222 68.5108 157.564 68.8937 157.762C69.2766 157.96 69.7224 157.997 70.133 157.866Z" fill="black"/>
</g>
<defs>
<clipPath id="clip0_350_99">
<rect width="130" height="104" fill="white" transform="translate(47 90.6836) rotate(-17.6897)"/>
</clipPath>
</defs>
</svg>
