<svg width="51" height="50" viewBox="0 0 51 50" fill="none" xmlns="http://www.w3.org/2000/svg">
<path fill-rule="evenodd" clip-rule="evenodd" d="M24.0929 30.1516L26.9362 27.3083C27.5554 26.6891 28.3925 26.3327 29.2681 26.3229C30.145 26.313 30.9889 26.6523 31.6094 27.2729L34.9879 30.6514C35.714 31.3775 35.714 32.5548 34.9879 33.2809C33.5837 34.6851 31.5786 35.411 29.5821 35.0459C28.8146 34.9056 27.9851 34.732 27.3985 34.5423C26.3747 34.2113 25.3009 33.8547 23.4972 32.4202C22.6777 31.7685 21.711 30.8978 20.5253 29.7122C19.3397 28.5266 18.4691 27.5599 17.8174 26.7404C16.3829 24.9366 16.0262 23.8629 15.6953 22.8391C15.5056 22.2524 15.332 21.4229 15.1916 20.6555C14.8266 18.659 15.5524 16.6539 16.9567 15.2497C17.6828 14.5236 18.8601 14.5236 19.5862 15.2497L22.9647 18.6282C23.5852 19.2487 23.9246 20.0926 23.9147 20.9694C23.9049 21.845 23.5484 22.6822 22.9293 23.3014L20.086 26.1446C20.5963 26.733 21.2312 27.4129 22.0279 28.2096C22.8246 29.0063 23.5046 29.6413 24.0929 30.1516ZM18.7724 24.453L21.4267 21.7988C21.6579 21.5675 21.7863 21.2592 21.7899 20.9456C21.7934 20.6332 21.6731 20.3418 21.4621 20.1308L18.277 16.9457C17.4434 17.8853 17.0696 19.1116 17.282 20.2733C17.4213 21.035 17.5744 21.7437 17.7172 22.1854L17.7279 22.2185C17.9402 22.8753 18.145 23.5091 18.7724 24.453ZM25.7845 31.4652C26.7285 32.0926 27.3623 32.2974 28.019 32.5097C28.0301 32.5132 28.0411 32.5168 28.0522 32.5204C28.4938 32.6632 29.2026 32.8163 29.9643 32.9556C31.126 33.168 32.3523 32.7942 33.2919 31.9605L30.1068 28.7755C29.8958 28.5645 29.6044 28.4442 29.292 28.4477C28.9784 28.4512 28.67 28.5797 28.4388 28.8109L25.7845 31.4652Z" fill="#C7413C"/>
<rect x="1" y="0.5" width="49" height="49" rx="24.5" stroke="#C7413C"/>
</svg>
