<svg width="37" height="36" viewBox="0 0 37 36" fill="none" xmlns="http://www.w3.org/2000/svg">
<path d="M23.1095 3H13.9055C5.4995 3 3.5 4.9995 3.5 13.3905V22.5945C3.5 30.999 5.4845 33 13.8905 33H23.0945C31.499 33 33.5 31.0155 33.5 22.6095V13.4055C33.5 4.9995 31.5155 3 23.1095 3ZM27.719 24.405H25.5305C24.7025 24.405 24.4535 23.7345 22.9685 22.2495C21.6725 21 21.125 20.844 20.7965 20.844C20.3435 20.844 20.219 20.9685 20.219 21.594V23.562C20.219 24.0945 20.0465 24.4065 18.656 24.4065C17.3065 24.3158 15.9979 23.9058 14.8379 23.2103C13.6779 22.5148 12.6998 21.5536 11.984 20.406C10.2848 18.291 9.10241 15.8087 8.531 13.1565C8.531 12.828 8.6555 12.531 9.281 12.531H11.468C12.0305 12.531 12.233 12.7815 12.4535 13.359C13.5155 16.485 15.3275 19.203 16.0625 19.203C16.3445 19.203 16.4675 19.0785 16.4675 18.375V15.156C16.3745 13.6875 15.5945 13.563 15.5945 13.032C15.6045 12.8919 15.6687 12.7613 15.7734 12.6678C15.8782 12.5742 16.0152 12.5252 16.1555 12.531H19.5935C20.063 12.531 20.219 12.765 20.219 13.3275V17.6715C20.219 18.141 20.4215 18.297 20.5625 18.297C20.8445 18.297 21.062 18.141 21.578 17.625C22.6863 16.2734 23.5918 14.7676 24.266 13.155C24.3349 12.9613 24.4653 12.7955 24.6373 12.6828C24.8093 12.5701 25.0134 12.5168 25.2185 12.531H27.407C28.0625 12.531 28.202 12.8595 28.0625 13.3275C27.2667 15.1101 26.2821 16.8023 25.1255 18.375C24.89 18.735 24.7955 18.9225 25.1255 19.344C25.343 19.6725 26.1095 20.313 26.6255 20.922C27.3754 21.67 27.998 22.5353 28.469 23.484C28.6565 24.093 28.343 24.405 27.719 24.405Z" fill="#C7413C"/>
</svg>
