<svg width="37" height="36" viewBox="0 0 37 36" fill="none" xmlns="http://www.w3.org/2000/svg">
<path d="M18.5015 3C26.786 3 33.5015 9.7155 33.5015 18C33.5015 26.2845 26.786 33 18.5015 33C15.8507 33.0043 13.2465 32.3028 10.9565 30.9675L3.50749 33L5.53549 25.548C4.19913 23.2573 3.49706 20.652 3.50149 18C3.50149 9.7155 10.217 3 18.5015 3ZM13.3895 10.95L13.0895 10.962C12.8953 10.9738 12.7055 11.0249 12.5315 11.112C12.3688 11.2041 12.2202 11.3193 12.0905 11.454C11.9105 11.6235 11.8085 11.7705 11.699 11.913C11.1442 12.6344 10.8454 13.52 10.85 14.43C10.853 15.165 11.045 15.8805 11.345 16.5495C11.9585 17.9025 12.968 19.335 14.3 20.6625C14.621 20.982 14.936 21.303 15.275 21.6015C16.9301 23.0587 18.9024 24.1096 21.035 24.6705L21.887 24.801C22.1645 24.816 22.442 24.795 22.721 24.7815C23.1578 24.7589 23.5844 24.6407 23.9705 24.435C24.1669 24.3338 24.3586 24.2237 24.545 24.105C24.545 24.105 24.6095 24.063 24.7325 23.97C24.935 23.82 25.0595 23.7135 25.2275 23.538C25.352 23.409 25.46 23.2575 25.5425 23.085C25.6595 22.8405 25.7765 22.374 25.8245 21.9855C25.8605 21.6885 25.85 21.5265 25.8455 21.426C25.8395 21.2655 25.706 21.099 25.5605 21.0285L24.6875 20.637C24.6875 20.637 23.3825 20.0685 22.5845 19.7055C22.501 19.669 22.4115 19.6482 22.3205 19.644C22.2179 19.6335 22.1142 19.645 22.0164 19.6779C21.9186 19.7107 21.8289 19.7641 21.7535 19.8345C21.746 19.8315 21.6455 19.917 20.561 21.231C20.4987 21.3146 20.413 21.3779 20.3147 21.4126C20.2164 21.4473 20.11 21.452 20.009 21.426C19.9113 21.3998 19.8155 21.3667 19.7225 21.327C19.5365 21.249 19.472 21.219 19.3445 21.165C18.4836 20.7893 17.6865 20.2817 16.982 19.6605C16.793 19.4955 16.6175 19.3155 16.4375 19.1415C15.8474 18.5763 15.3331 17.937 14.9075 17.2395L14.819 17.097C14.7554 17.0012 14.704 16.898 14.666 16.7895C14.609 16.569 14.7575 16.392 14.7575 16.392C14.7575 16.392 15.122 15.993 15.2915 15.777C15.4565 15.567 15.596 15.363 15.686 15.2175C15.863 14.9325 15.9185 14.64 15.8255 14.4135C15.4055 13.3875 14.9705 12.366 14.5235 11.352C14.435 11.151 14.1725 11.007 13.934 10.9785C13.853 10.9695 13.772 10.9605 13.691 10.9545C13.4895 10.9445 13.2877 10.9465 13.0865 10.9605L13.388 10.9485L13.3895 10.95Z" fill="#C7413C"/>
</svg>
